<?xml version="1.0" encoding="UTF-8" standalone="no"?>
<!-- Created with Inkscape (http://www.inkscape.org/) -->

<svg
   xmlns:dc="http://purl.org/dc/elements/1.1/"
   xmlns:cc="http://creativecommons.org/ns#"
   xmlns:rdf="http://www.w3.org/1999/02/22-rdf-syntax-ns#"
   xmlns:svg="http://www.w3.org/2000/svg"
   xmlns="http://www.w3.org/2000/svg"
   xmlns:sodipodi="http://sodipodi.sourceforge.net/DTD/sodipodi-0.dtd"
   xmlns:inkscape="http://www.inkscape.org/namespaces/inkscape"
   width="620.70081"
   height="230"
   viewBox="0 0 164.22708 60.854168"
   version="1.1"
   id="svg5152"
   inkscape:version="0.92.4 (5da689c313, 2019-01-14)"
   sodipodi:docname="broken testube.svg">
  <defs
     id="defs5146" />
  <sodipodi:namedview
     id="base"
     pagecolor="#ffffff"
     bordercolor="#666666"
     borderopacity="1.0"
     inkscape:pageopacity="0.0"
     inkscape:pageshadow="2"
     inkscape:zoom="0.49497475"
     inkscape:cx="148.27307"
     inkscape:cy="425.0658"
     inkscape:document-units="mm"
     inkscape:current-layer="layer1"
     showgrid="false"
     inkscape:window-width="1366"
     inkscape:window-height="705"
     inkscape:window-x="-8"
     inkscape:window-y="-8"
     inkscape:window-maximized="1"
     units="px" />
  <metadata
     id="metadata5149">
    <rdf:RDF>
      <cc:Work
         rdf:about="">
        <dc:format>image/svg+xml</dc:format>
        <dc:type
           rdf:resource="http://purl.org/dc/dcmitype/StillImage" />
        <dc:title></dc:title>
      </cc:Work>
    </rdf:RDF>
  </metadata>
  <g
     inkscape:label="Layer 1"
     inkscape:groupmode="layer"
     id="layer1"
     transform="translate(0,-236.14582)">
    <path
       style="opacity:1;fill:#e6e6e6;fill-opacity:1;stroke:#cccccc;stroke-width:0;stroke-miterlimit:4;stroke-dasharray:none;stroke-opacity:1"
       d="m 141.24132,244.33047 -58.14322,9.63145 15.256952,5.086 8.552968,-2.67271 24.58868,3.20704 -34.210835,2.13837 -15.778363,-7.49515 -38.675677,6.40684 -7.017658,10.17509 11.225154,-4.27622 19.24327,8.55297 -14.967045,5.34489 16.036229,4.27674 -1.912543,1.64693 92.612948,-15.3417 -8.36228,-13.27206 -4.82968,10.9306 0.53434,-4.81108 -17.10542,8.55297 18.79989,-18.79988 z M 39.617034,261.16458 1.028693,267.55696 c 0.6107879,6.9798 3.0732703,17.53852 11.466999,27.56576 l 46.728414,-7.74062 1.71359,-2.14199 -21.381641,-3.20703 19.777604,-6.94893 -11.759488,-2.67271 -18.708936,2.13785 11.225157,-13.36352 z"
       id="rect5714"
       inkscape:connector-curvature="0" />
    <path
       style="opacity:1;fill:#e6e6e6;fill-opacity:1;stroke:#e6e6e6;stroke-width:5.28268671;stroke-linejoin:round;stroke-miterlimit:4;stroke-dasharray:none;stroke-opacity:1;paint-order:stroke fill markers"
       d="m 139.08383,240.90587 -0.90692,0.14986 20.99458,33.32148 0.90692,-0.14986 -10.38851,-16.4884 z"
       id="rect5720"
       inkscape:connector-curvature="0" />
  </g>
</svg>
