<?xml version="1.0" encoding="UTF-8" standalone="no"?>
<!-- Created with Inkscape (http://www.inkscape.org/) -->

<svg
   xmlns:dc="http://purl.org/dc/elements/1.1/"
   xmlns:cc="http://creativecommons.org/ns#"
   xmlns:rdf="http://www.w3.org/1999/02/22-rdf-syntax-ns#"
   xmlns:svg="http://www.w3.org/2000/svg"
   xmlns="http://www.w3.org/2000/svg"
   xmlns:sodipodi="http://sodipodi.sourceforge.net/DTD/sodipodi-0.dtd"
   xmlns:inkscape="http://www.inkscape.org/namespaces/inkscape"
   width="100"
   height="50"
   viewBox="0 0 100 50"
   version="1.1"
   id="svg2004"
   inkscape:version="0.92.4 (5da689c313, 2019-01-14)"
   sodipodi:docname="hand final.svg">
  <defs
     id="defs1998" />
  <sodipodi:namedview
     id="base"
     pagecolor="#ffffff"
     bordercolor="#666666"
     borderopacity="1.0"
     inkscape:pageopacity="0.0"
     inkscape:pageshadow="2"
     inkscape:zoom="1.979899"
     inkscape:cx="100.69727"
     inkscape:cy="75.348304"
     inkscape:document-units="mm"
     inkscape:current-layer="layer1"
     showgrid="false"
     inkscape:window-width="1366"
     inkscape:window-height="705"
     inkscape:window-x="-8"
     inkscape:window-y="-8"
     inkscape:window-maximized="1"
     units="px" />
  <metadata
     id="metadata2001">
    <rdf:RDF>
      <cc:Work
         rdf:about="">
        <dc:format>image/svg+xml</dc:format>
        <dc:type
           rdf:resource="http://purl.org/dc/dcmitype/StillImage" />
        <dc:title></dc:title>
      </cc:Work>
    </rdf:RDF>
  </metadata>
  <g
     inkscape:label="Layer 1"
     inkscape:groupmode="layer"
     id="layer1"
     transform="translate(0,-247)">
    <path
       style="fill:#ffccaa;stroke:#000000;stroke-width:0.42497259px;stroke-linecap:butt;stroke-linejoin:miter;stroke-opacity:1"
       d="m 95.885235,285.25104 c -7.520496,-6.14249 -14.629946,-11.37095 -24.287281,-16.91652 -5.71003,-1.23815 -27.712942,-1.03605 -41.724996,-1.1347 L 10.878864,249.14861 c -3.5381111,-1.19118 -5.5015031,0.61075 -7.3063437,2.71404 -1.1677767,6.95061 -0.7317863,9.78643 -0.091274,22.4393 2.0141537,6.5966 10.2248777,13.35067 18.4247647,18.78053 10.909337,2.80455 11.150239,1.20329 23.869593,2.7011 5.818313,-0.0224 10.344531,-5.33322 1.572492,-8.21046 l -8.079994,-0.67651 c -2.989404,-1.48263 -4.718097,-3.79757 -0.05334,-6.20879 l 34.25237,0.12445 c 4.511319,2.59401 9.022604,6.01748 13.533907,10.28547 6.652311,3.58119 10.665874,0.67886 8.885382,-5.84664 z"
       id="path2626"
       inkscape:connector-curvature="0"
       sodipodi:nodetypes="ccccccccccccccc" />
  </g>
</svg>
