<?xml version="1.0" encoding="UTF-8" standalone="no"?>
<!-- Created with Inkscape (http://www.inkscape.org/) -->

<svg
   xmlns:dc="http://purl.org/dc/elements/1.1/"
   xmlns:cc="http://creativecommons.org/ns#"
   xmlns:rdf="http://www.w3.org/1999/02/22-rdf-syntax-ns#"
   xmlns:svg="http://www.w3.org/2000/svg"
   xmlns="http://www.w3.org/2000/svg"
   xmlns:sodipodi="http://sodipodi.sourceforge.net/DTD/sodipodi-0.dtd"
   xmlns:inkscape="http://www.inkscape.org/namespaces/inkscape"
   width="550.70081"
   height="550"
   viewBox="0 0 145.70625 145.52083"
   version="1.1"
   id="svg7059"
   inkscape:version="0.92.4 (5da689c313, 2019-01-14)"
   sodipodi:docname="splash.svg">
  <defs
     id="defs7053" />
  <sodipodi:namedview
     id="base"
     pagecolor="#ffffff"
     bordercolor="#666666"
     borderopacity="1.0"
     inkscape:pageopacity="0.0"
     inkscape:pageshadow="2"
     inkscape:zoom="0.49497475"
     inkscape:cx="-201.09621"
     inkscape:cy="202.34529"
     inkscape:document-units="mm"
     inkscape:current-layer="layer1"
     showgrid="false"
     inkscape:window-width="1366"
     inkscape:window-height="705"
     inkscape:window-x="-8"
     inkscape:window-y="-8"
     inkscape:window-maximized="1" />
  <metadata
     id="metadata7056">
    <rdf:RDF>
      <cc:Work
         rdf:about="">
        <dc:format>image/svg+xml</dc:format>
        <dc:type
           rdf:resource="http://purl.org/dc/dcmitype/StillImage" />
        <dc:title></dc:title>
      </cc:Work>
    </rdf:RDF>
  </metadata>
  <g
     inkscape:label="Layer 1"
     inkscape:groupmode="layer"
     id="layer1"
     transform="translate(0,-151.47917)">
    <path
       style="opacity:1;fill:#005fff;fill-opacity:1;fill-rule:evenodd;stroke:none;stroke-width:36.21500015;stroke-linejoin:round;stroke-miterlimit:4;stroke-dasharray:none;stroke-opacity:0;paint-order:stroke fill markers"
       inkscape:transform-center-x="-0.82686421"
       inkscape:transform-center-y="0.21645901"
       d="m 117.32881,281.48482 c -6.41968,17.9053 -9.05703,-30.28732 -26.305362,-21.79439 -17.248335,8.49293 23.174162,33.27248 5.58909,31.16868 -18.59762,-2.22495 -9.64283,-24.93636 -28.424227,-23.81789 -18.7814,1.11847 14.670767,28.8191 -4.011699,26.92087 -18.682468,-1.89822 6.539995,-16.88419 -11.372531,-23.65899 -17.912527,-6.7748 -0.933187,26.62156 -16.97928,16.29025 -16.046091,-10.33131 26.52031,-24.75498 5.125163,-27.92802 -18.338355,-2.71969 -12.725047,22.07424 -25.143379,7.14812 C 3.3882539,250.88733 42.808091,259.00163 36.061454,241.83918 29.314816,224.67673 3.9358449,259.0716 1.4227529,240.93996 -1.09034,222.80832 19.541423,248.55632 20.849176,229.32095 c 1.307752,-19.23537 0,0 -9.520626,-18.16628 -8.8533051,-16.89296 7.685831,9.89196 16.516313,-7.10735 8.830483,-16.99931 -36.3180111,-6.74517 -20.5973301,-16.79937 19.3272771,-12.3608 16.9360731,15.3874 30.7856121,2.45607 13.849541,-12.93134 -16.369049,-22.3082 0.328927,-30.83828 16.697973,-8.53008 4.828496,34.82248 22.312901,28.74261 17.484407,-6.07987 -14.027471,-30.94876 4.934097,-32.11119 18.961568,-1.16243 -12.153764,15.20216 7.052607,17.18356 19.206371,1.98141 0.904263,-17.18409 18.176111,-10.31988 17.271852,6.86421 -15.686925,9.71338 0.42941,20.26838 16.116322,10.55501 22.362812,-29.80823 26.359942,-10.88815 3.269,15.47352 -29.790312,12.74288 -20.359562,28.91064 9.430752,16.16777 40.257102,-24.33304 37.208042,-6.06365 -3.08838,18.50499 -18.47751,13.51822 -12.70975,27.24065 7.28073,17.32205 22.48781,-15.48339 23.80633,2.84602 1.31852,18.3294 -24.17802,-3.86864 -27.50869,15.27358 -3.33067,19.14223 27.16646,5.44798 20.1901,22.84444 -6.97636,17.39645 -27.37605,-30.62367 -37.38575,-15.11333 -10.009682,15.51035 22.80835,16.10171 16.46095,33.8054 z"
       id="path7611"
       inkscape:connector-curvature="0"
       sodipodi:nodetypes="sssssssssssssssssssssssssssssss" />
  </g>
</svg>
